<svg xmlns="http://www.w3.org/2000/svg" width="49.37" height="67.826" viewBox="0 0 49.37 67.826">
  <defs>
    <style>
      .cls-1 {
        fill: #fff;
      }
    </style>
  </defs>
  <g id="Group_34" data-name="Group 34" transform="matrix(0.985, 0.174, -0.174, 0.985, -711.251, -2056.124)">
    <path id="path1" class="cls-1" d="M16.6,40.553l.053.105a4.975,4.975,0,0,0,4.331,2.791,4.975,4.975,0,0,0,4.331-2.791l.053-.105ZM20.956,2.9c-4.161.061-7.425,1.218-9.4,3.35a9.973,9.973,0,0,0-2.5,6.871C10.937,25.349,7.247,28.5,6.487,29l-.2.117c-3.9,3.236-3.712,6.89-3.015,8.536H38.686c.7-1.673.873-5.31-3.007-8.532l-.124-.072c-.838-.555-4.533-3.7-2.638-16.026A10.019,10.019,0,0,0,30.4,6.247C28.427,4.115,25.162,2.957,20.956,2.9Zm0-2.9C26.014.072,30,1.551,32.522,4.28a12.854,12.854,0,0,1,3.265,9.1c-1.657,10.793,1.29,13.2,1.318,13.229l.314.2c5.537,4.517,4.9,10.015,3.79,12.292l-.68,1.454H28.485l-.027.088a8.043,8.043,0,0,1-7.476,5.7,8.043,8.043,0,0,1-7.476-5.7l-.027-.088H1.435L.743,39.077c-1.1-2.255-1.738-7.753,3.8-12.27l.416-.262h0l.005-.006c.148-.154,2.8-2.787,1.221-13.074A12.828,12.828,0,0,1,9.434,4.28C11.959,1.551,15.942.072,20.956,0Z" transform="translate(1068 1914.654)"/>
    <g id="Group_33" data-name="Group 33" transform="translate(1070.982 1899)">
      <path id="path1-2" data-name="path1" class="cls-1" d="M17.933,6.147a4.472,4.472,0,1,0,4.484,4.472A4.483,4.483,0,0,0,17.933,6.147ZM33.269,2.235a.484.484,0,0,0-.161.019l-10.078,4,.091.105a6.722,6.722,0,0,1,.908,1.433l.078.175,2.916-1.441a1.119,1.119,0,1,1,1,2l-3.376,1.668.008.125q.007.15.007.3t-.007.3l-.008.124,3.375,1.669a1.119,1.119,0,0,1-1,2l-2.916-1.441-.078.176a6.723,6.723,0,0,1-.908,1.433l-.091.1,10.181,4.032a.535.535,0,0,0,.3-.1.248.248,0,0,0,.115-.2V2.523a.248.248,0,0,0-.115-.2A.445.445,0,0,0,33.269,2.235ZM2.638,2.217a.558.558,0,0,0-.282.1.25.25,0,0,0-.114.2V18.716a.253.253,0,0,0,.114.2.465.465,0,0,0,.4.067l10.077-4-.092-.106a6.723,6.723,0,0,1-.908-1.433l-.077-.175-2.914,1.44a1.119,1.119,0,1,1-1-2l3.373-1.667-.008-.125q-.007-.15-.007-.3t.007-.3l.008-.125L7.849,8.526a1.119,1.119,0,1,1,1-2l2.914,1.441.077-.175a6.722,6.722,0,0,1,.908-1.433l.091-.105L2.658,2.219ZM2.605,0a2.728,2.728,0,0,1,.776.105L14.87,4.65l.15-.077a6.738,6.738,0,0,1,5.827,0L21,4.65,32.382.14a3.106,3.106,0,0,1,.847-.13,2.638,2.638,0,0,1,1.629.524,2.475,2.475,0,0,1,1.01,1.99V18.716a2.471,2.471,0,0,1-1.01,1.989,2.719,2.719,0,0,1-2.373.429L21,16.589l-.15.077a6.737,6.737,0,0,1-5.827,0l-.149-.076L3.485,21.1a3.113,3.113,0,0,1-.877.13,2.646,2.646,0,0,1-1.6-.523A2.476,2.476,0,0,1,0,18.716V2.524A2.473,2.473,0,0,1,1.009.535,2.706,2.706,0,0,1,2.605,0Z" transform="translate(0 0)"/>
    </g>
  </g>
</svg>
