<svg xmlns="http://www.w3.org/2000/svg" width="17.804" height="20.239" viewBox="0 0 17.804 20.239">
  <g id="Group_50" data-name="Group 50" transform="translate(-8.165 -6)">
    <path id="path1" d="M12.405,16.162v2.5h3.824v-2.5Zm-5.635,0v2.5H11v-2.5Zm-5.2,0v2.5H5.366v-2.5Zm10.831-3.935v2.53h3.824v-2.53Zm-5.635,0v2.53H11v-2.53Zm-5.2,0v2.53H5.366v-2.53ZM12.405,8.321v2.5h3.824v-2.5Zm-5.635,0v2.5H11v-2.5Zm-5.2,0v2.5H5.366v-2.5ZM0,6.746H17.8V20.239H0ZM0,1.873H3.242v2.24h2.7V1.873h5.967v2.24h2.7V1.873h3.2V5.34H0ZM12.7,0h1.125V3.326H12.7ZM4.03,0H5.154V3.326H4.03Z" transform="translate(8.165 6)" fill="#9d9d9d"/>
  </g>
</svg>
