<svg xmlns="http://www.w3.org/2000/svg" xmlns:xlink="http://www.w3.org/1999/xlink" width="1920.505" height="267.504" viewBox="0 0 1920.505 267.504">
  <defs>
    <style>
      .cls-1 {
        fill: none;
      }

      .cls-2 {
        fill: #fff;
      }

      .cls-3 {
        clip-path: url(#clip-path);
      }

      .cls-4 {
        opacity: 0.1;
      }

      .cls-5 {
        fill: url(#linear-gradient);
      }

      .cls-6 {
        fill: url(#linear-gradient-2);
      }

      .cls-7 {
        fill: url(#linear-gradient-3);
      }

      .cls-8 {
        fill: url(#linear-gradient-4);
      }
    </style>
    <clipPath id="clip-path">
      <rect class="cls-1" width="657.433" height="267.504"/>
    </clipPath>
    <linearGradient id="linear-gradient" x1="0.029" y1="0.905" x2="0.303" y2="0.141" gradientUnits="objectBoundingBox">
      <stop offset="0" stop-color="#cfecee"/>
      <stop offset="1" stop-color="#19aad1"/>
    </linearGradient>
    <linearGradient id="linear-gradient-2" x1="0.764" y1="0.8" x2="0.346" y2="0.264" xlink:href="#linear-gradient"/>
    <linearGradient id="linear-gradient-3" x1="0.428" y1="0.035" x2="0.456" y2="0.957" gradientUnits="objectBoundingBox">
      <stop offset="0" stop-color="#afebfd"/>
      <stop offset="1" stop-color="#fff"/>
    </linearGradient>
    <linearGradient id="linear-gradient-4" x1="0.362" y1="0.145" x2="0.538" y2="0.918" gradientUnits="objectBoundingBox">
      <stop offset="0" stop-color="#abecfe"/>
      <stop offset="1" stop-color="#fff"/>
    </linearGradient>
  </defs>
  <g id="Group_68" data-name="Group 68" transform="translate(0.505 -447.219)">
    <path id="Path_13" data-name="Path 13" class="cls-2" d="M-1.109-14.968,1263.869,68.4V100H-1.109Z" transform="translate(656.131 604)"/>
    <g id="Mountains" class="cls-3" transform="translate(-0.505 447.219)">
      <path id="Path_15" data-name="Path 15" class="cls-4" d="M-2102.5,594.96l30.9-49.073,11.792-35.007,37.378-41.118L-1984.067,498l34.493,34.771,7.739,3.462,50.879-75.263,55.693-53.749,113.478,82.836,97.554,24.633,179.023,30.024v78.6l-657.3,12.741Z" transform="translate(2102.505 -407.219)"/>
      <path id="Path_8" data-name="Path 8" class="cls-5" d="M-1934.516,700.064v-27.44l34.232-56.387,11.7-34.183,32.331-36.54,35.772,74.955,105.472,98.833v19.914l-219.509-2.643Z" transform="translate(1934.696 -476.322)"/>
      <path id="Path_9" data-name="Path 9" class="cls-6" d="M-1838.186,658.735l67.374-99.5,53.048-50.566,98.753,72.812,4.61,155.257-252.063-9.312Z" transform="translate(1985.291 -503.715)"/>
      <path id="Path_10" data-name="Path 10" class="cls-2" d="M-1934.505,751.9V722.315l22.929-23.971,103.181,44.942-90.011-58.42,27.687-39.123V614.581l41.9,35.864-34.617-53.75,8.666-25.261,35.127,25.261,35.864,35.126,35.772,18.624,11.34,27.2,94.132,17.886h46.717l-69.1-17.886-42.339-27.2,29.553-21.425,4.969-44.516,65.971,5.207-43.08-26.244-16.24-54.678,109.852,80.922,97.381,24.986,181.781,31.046V771.13l-657.433-.115Z" transform="translate(1934.505 -503.625)"/>
      <path id="Path_11" data-name="Path 11" class="cls-7" d="M-1870.086,544.261l-11.22,31.414,32.519,42.7-37.435-30.486v30.486l-27.893,40.181,91.108,58.36,17.875,11.248h158.22l-28.259-62.628-76.373-13.622-11.4-27.568-35.741-18.732-36.425-35.585Z" transform="translate(1949.865 -477.253)"/>
      <path id="Path_12" data-name="Path 12" class="cls-8" d="M-1692.837,695.529l-69.1-17.886-42.339-27.2,29.553-21.425,4.933-44.526,66.007,5.217-43.08-26.244-16.24-54.678,109.852,80.922,97.766,24.737,48.355,40.055-59.1,41.026Z" transform="translate(2031.524 -503.625)"/>
    </g>
  </g>
</svg>
