<svg xmlns="http://www.w3.org/2000/svg" width="12.424" height="20.239" viewBox="0 0 12.424 20.239">
  <g id="Group_49" data-name="Group 49" transform="translate(-12.95 -6)">
    <path id="path1" d="M6.212,4.086a2.564,2.564,0,0,0-2.391,2.7,2.562,2.562,0,0,0,2.391,2.7A2.562,2.562,0,0,0,8.6,6.788,2.564,2.564,0,0,0,6.212,4.086Zm0-.911A3.46,3.46,0,0,1,9.484,6.788,3.459,3.459,0,0,1,6.212,10.4,3.459,3.459,0,0,1,2.94,6.788,3.46,3.46,0,0,1,6.212,3.174Zm0-1.945C3.4,1.237,1.118,3.861,1.118,7.079c0,5.989,4.526,11.766,5.12,11.928.562-.163,5.069-5.946,5.069-11.928C11.306,3.861,9.021,1.237,6.211,1.23Zm0-1.23c3.427.006,6.213,3.182,6.213,7.079a19.711,19.711,0,0,1-2.532,8.848,20.84,20.84,0,0,1-1.907,2.94c-1.091,1.373-1.528,1.373-1.762,1.373s-.669,0-1.765-1.372a21,21,0,0,1-1.914-2.94A19.649,19.649,0,0,1,0,7.079C0,3.182,2.785.006,6.211,0Z" transform="translate(12.95 6)" fill="#9d9d9d"/>
  </g>
</svg>
