<svg id="Se7enLogo" xmlns="http://www.w3.org/2000/svg" width="208.995" height="59.033" viewBox="0 0 208.995 59.033">
  <defs>
    <style>
      .cls-1 {
        fill: #500788;
      }

      .cls-2 {
        fill: #656565;
      }
    </style>
  </defs>
  <path id="Path_2" data-name="Path 2" class="cls-1" d="M892.5,441.177c-1.2-1.144-5.956-9.688-6.035-10.753.955,0,1.913-.063,2.858.016a2.356,2.356,0,0,0,2.459-1.431c1.64-2.923,3.347-5.808,5.037-8.7q6.991-11.97,13.985-23.937c.394-.675.743-1.378,1.193-2.217h-.829c-6.225,0-12.451.014-18.676-.024a2,2,0,0,0-2.025,1.151c-.428.829-.89,1.642-1.36,2.448-.262.45-.572.871-.954,1.447l-6.883-11.811h42.614Z" transform="translate(-790.597 -382.144)"/>
  <path id="Path_3" data-name="Path 3" class="cls-1" d="M797.347,368.747l-13.873,23.791-.269-.014-24.241-41.491h13.552c-.4.482-.669.831-.959,1.165-.6.686-1.2,1.364-1.8,2.047a1.243,1.243,0,0,0-.161,1.469c.124.259.246.52.391.767q6.414,10.974,12.835,21.943c.129.22.281.426.491.744.372-.576.695-1.043.985-1.529,1.631-2.734,3.265-5.466,4.869-8.215a1.24,1.24,0,0,1,1.215-.682C792.623,368.757,794.865,368.747,797.347,368.747Z" transform="translate(-685.859 -351.033)"/>
  <path id="Path_4" data-name="Path 4" class="cls-2" d="M1554.256,496.215c-.011.235-.032.469-.032.7-.005,3.255-.038,6.51.014,9.764a8.525,8.525,0,0,0,.545,2.009H1548.6c.932-.882.765-1.859.768-2.8.013-4.691.04-9.382.014-14.072a17.484,17.484,0,0,0-.385-2.528c.211-.013.463-.042.715-.043,1.531-.007,3.063,0,4.595-.016a2.174,2.174,0,0,1,1.75.8c2.835,3.178,5.693,6.336,8.539,9.5.157.175.283.379.505.679.144-.327.258-.465.259-.6.018-2.915.041-5.83.013-8.745a7.279,7.279,0,0,0-.38-1.571h6.055c-1.345,1.4-.938,3.073-.958,4.661-.029,2.273-.044,4.546-.005,6.818q.055,3.19.254,6.376a5.983,5.983,0,0,0,.552,1.543c-1.462,0-2.935.047-4.4-.033a1.913,1.913,0,0,1-1.034-.706c-3.109-3.382-6.2-6.785-9.3-10.173-.539-.589-1.125-1.135-1.689-1.7Z" transform="translate(-1362.05 -469.38)"/>
  <path id="Path_5" data-name="Path 5" class="cls-2" d="M252.207,497.54A4.213,4.213,0,0,0,255.138,500a14,14,0,0,0,7.969.6,2.687,2.687,0,0,0,2.1-1.661c.344-.923.137-1.518-.8-1.8a19.862,19.862,0,0,0-2.734-.555c-2.266-.353-4.554-.593-6.8-1.047a7.233,7.233,0,0,1-2.623-1.256c-1.9-1.349-2.307-3.69-1.18-5.972s3.146-3.243,5.473-3.746a18.777,18.777,0,0,1,8.581.5c1.27.314,2.506.767,3.756,1.158.348.109.534.3.362.692-.514,1.179-1.019,2.362-1.508,3.5-.162,0-.23.019-.248,0a5.97,5.97,0,0,0-3.825-1.9,15.526,15.526,0,0,0-6.266-.218,3.554,3.554,0,0,0-1.6.854,1.131,1.131,0,0,0,.422,2,31.817,31.817,0,0,0,3.854.718c1.882.305,3.8.466,5.647.9a5.482,5.482,0,0,1,4.562,5.056,6.253,6.253,0,0,1-3.618,6.167,13.593,13.593,0,0,1-5.441,1.16,24.627,24.627,0,0,1-10.534-1.77c-.535-.224-.693-.468-.488-1.008.607-1.6,1.191-3.208,1.783-4.814Z" transform="translate(-250.117 -465.109)"/>
  <path id="Path_6" data-name="Path 6" class="cls-2" d="M564.687,496.58v5.137c-2.321-.9-4.65-.469-6.948-.538-1.006-.03-1.031,0-1.065,1.024a19.571,19.571,0,0,0,.055,2.365.725.725,0,0,0,.511.486c3.447.028,6.894.05,10.339-.012a4.687,4.687,0,0,0,1.569-.66c0,1.3.015,2.738-.027,4.174,0,.12-.379.32-.587.329-1.124.045-2.249.054-3.374.053q-6.821,0-13.642-.021c-.253,0-.505-.038-.93-.071,1.033-1.13.75-2.386.755-3.583.016-4.261,0-8.521.014-12.782a3.76,3.76,0,0,0-.845-2.955c.4-.032.638-.069.879-.069q8.438-.007,16.875,0c.937,0,.951.007.962.952.013,1.125,0,2.25-.006,3.374a1.418,1.418,0,0,1-.1.293c-.944-.957-2.1-.759-3.241-.742q-4.128.061-8.257.015c-.723-.008-1,.232-.95.948.044.691.026,1.386.017,2.079-.006.448.179.652.64.65,1.891-.005,3.783.036,5.672-.009A7.863,7.863,0,0,0,564.687,496.58Z" transform="translate(-507.355 -469.566)"/>
  <path id="Path_7" data-name="Path 7" class="cls-2" d="M1261.943,489.354c.216-.012.473-.039.73-.039,5.531,0,11.061.02,16.592-.005.742,0,.943.226.908.943-.059,1.193-.016,2.391-.016,3.782-1.366-1.364-2.952-.756-4.431-.789-2.417-.055-4.836.005-7.254-.016-.609-.005-.877.172-.839.815.044.739.022,1.482.011,2.224-.006.4.121.63.57.629,1.915,0,3.831.04,5.745-.008a7.531,7.531,0,0,0,1.671-.436v5.14c-2.413-.947-4.849-.4-7.24-.545-.549-.033-.78.163-.755.736.037.86.023,1.722.01,2.582-.006.423.153.6.591.594,3.448-.011,6.9.025,10.342-.04.516-.01,1.024-.471,1.539-.725v4.547h-18.343c.92-2.1.5-4.271.521-6.407.037-3.256.063-6.512.027-9.767A30.17,30.17,0,0,0,1261.943,489.354Z" transform="translate(-1116.433 -469.444)"/>
</svg>
