<svg xmlns="http://www.w3.org/2000/svg" width="59.962" height="62" viewBox="0 0 59.962 62">
  <defs>
    <style>
      .cls-1 {
        fill: #fff;
      }
    </style>
  </defs>
  <g id="Group_12" data-name="Group 12" transform="translate(-6.592 -6)">
    <path id="path1" class="cls-1" d="M44.805,33.712l-6.333.1.145.745a2.2,2.2,0,0,1-.482,1.666L29.66,46.756,33.4,48.749,45.3,34.056ZM30.369,26.826l-.474.471,3.572,2.63,5.76-.089L36.05,27.631Zm12.371-2.634L40.9,26.024v.091l-.009.105,4.934,3.515,4.444-.069Zm-1.149-8.506-7.7,7.639,3.593.509,4.126-4.115Zm3.955-1.368.009,1.472.82-.818ZM43.9,8.625a1.976,1.976,0,0,1,.92.231l.064.038.07.023a1.982,1.982,0,0,1,.517.294l5.068,4a1.978,1.978,0,0,1,.172,2.958l-.076.067-.029.049a1.988,1.988,0,0,1-.254.311l-4.767,4.755v.008l10.655,7.75a1.977,1.977,0,0,1,.8,1.862l-.028.157,0,.016a2.014,2.014,0,0,1,.047.4,1.979,1.979,0,0,1-1.755,2c-.064.008-.128.01-.194.012l-5.914.092.019.177a3.849,3.849,0,0,1-.839,2.725l-11.418,14.1,12.571,6.693a5.083,5.083,0,0,0,3.509.566,3.906,3.906,0,0,0,2.277-2.17,1.98,1.98,0,1,1,3.52,1.813,7.71,7.71,0,0,1-4.718,4.169,7.37,7.37,0,0,1-2.04.283A9.5,9.5,0,0,1,47.6,60.795L1.05,36.013a1.981,1.981,0,1,1,1.864-3.5L26.1,44.86l7.8-9.7-1.706-1.256-17.509.272a1.981,1.981,0,1,1-.06-3.962l12.3-.19-.3-.219a2.976,2.976,0,0,1-1.042-3.42l.1-.228-16.5-2.338A1.981,1.981,0,0,1,9.737,19.9l19.237,2.727L42.5,9.2A1.975,1.975,0,0,1,43.9,8.625ZM54.018,0a5.944,5.944,0,1,1-5.942,5.944A5.944,5.944,0,0,1,54.018,0Z" transform="translate(6.592 6)"/>
  </g>
</svg>
