<svg xmlns="http://www.w3.org/2000/svg" width="69.956" height="61.596" viewBox="0 0 69.956 61.596">
  <defs>
    <style>
      .cls-1 {
        fill: #cfecee;
      }
    </style>
  </defs>
  <g id="Snowflake" transform="translate(-6 -8.151)">
    <path id="path1" class="cls-1" d="M17.38,0h3.738L25.3,7.039,28.817.879h3.74l1.76,3.3-5.5,9.459L34.978,24.2l6.16-10.559-5.5-9.459L37.4.879h3.74l3.52,6.161L48.838,0h3.738l1.76,3.3-4.18,7.039h7.26l1.76,3.3-1.76,3.3H46.637L40.478,27.5h12.1l5.5-9.462h3.74l1.76,3.3L60.057,27.5H68.2l1.76,3.3L68.2,34.1H60.057l3.52,6.16-1.76,3.3h-3.74l-5.5-9.459h-12.1l6.158,10.561h10.78l1.76,3.3-1.76,3.3h-7.26l4.18,7.039-1.76,3.3H48.838l-4.18-7.039-3.52,6.16H37.4l-1.76-3.3,5.5-9.459L34.978,37.4l-6.16,10.559,5.5,9.459-1.76,3.3h-3.74l-3.52-6.16L21.118,61.6H17.38l-1.76-3.3,4.18-7.039H12.54l-1.76-3.3,1.76-3.3h10.78L29.478,34.1H17.38l-5.5,9.459H8.139l-1.76-3.3L9.9,34.1H1.76L0,30.8l1.76-3.3H9.9l-3.52-6.161,1.76-3.3h3.741l5.5,9.462h12.1L23.319,16.938H12.54l-1.76-3.3,1.76-3.3H19.8L15.62,3.3Z" transform="translate(6 8.151)"/>
  </g>
</svg>
