<svg xmlns="http://www.w3.org/2000/svg" width="57.874" height="62" viewBox="0 0 57.874 62">
  <path id="path1" d="M25.037,48.42v9.7H32.8v-9.7Zm3.88-43.49L20.9,14.515l2.982.254A1.939,1.939,0,0,1,25.1,18.054l-13.033,13.4,2.472.621A1.938,1.938,0,0,1,15.46,35.3L6.522,44.525h44.79L42.373,35.3a1.939,1.939,0,0,1,.91-3.23l2.491-.64L32.731,18.04a1.94,1.94,0,0,1,1.23-3.286l2.972-.25Zm0-4.93a1.927,1.927,0,0,1,1.488.662l11.9,14.22a1.937,1.937,0,0,1-1.325,3.176l-2.6.219L50.892,31.125a1.94,1.94,0,0,1-.908,3.232l-2.5.642,9.6,9.9A1.942,1.942,0,0,1,55.934,48.4a.129.129,0,0,1-.039,0H36.677V62H21.157V48.4H1.94a1.94,1.94,0,0,1-1.393-3.29l9.791-10.1-2.479-.624a1.941,1.941,0,0,1-.916-3.234L19.464,18.289l-2.615-.225a1.937,1.937,0,0,1-1.321-3.176L27.429.662A1.926,1.926,0,0,1,28.917,0Z" transform="translate(0)" fill="#18466a"/>
</svg>
